<svg width="245" height="300" viewBox="0 0 245 300" fill="none" xmlns="http://www.w3.org/2000/svg">
<line x1="240.307" y1="8.02245" x2="208.318" y2="52.8077" stroke="white" stroke-width="8" stroke-linecap="round"/>
<line x1="37.5693" y1="249.842" x2="5.57989" y2="294.627" stroke="white" stroke-width="8" stroke-linecap="round"/>
<line x1="123.688" y1="6.44257" x2="123.688" y2="49.7376" stroke="white" stroke-width="8" stroke-linecap="round"/>
<line x1="123.688" y1="250.705" x2="123.688" y2="294" stroke="white" stroke-width="8" stroke-linecap="round"/>
<line x1="99.8114" y1="8.24764" x2="105.953" y2="49.1886" stroke="white" stroke-width="8" stroke-linecap="round"/>
<line x1="141.336" y1="252.51" x2="147.477" y2="293.451" stroke="white" stroke-width="8" stroke-linecap="round"/>
<line x1="71.1896" y1="9.46213" x2="87.6262" y2="48.4989" stroke="white" stroke-width="8" stroke-linecap="round"/>
<line x1="161.567" y1="253.724" x2="178.003" y2="292.761" stroke="white" stroke-width="8" stroke-linecap="round"/>
<line x1="46.9638" y1="18.6524" x2="67.5049" y2="55.6263" stroke="white" stroke-width="8" stroke-linecap="round"/>
<line x1="181.308" y1="245.816" x2="201.849" y2="282.79" stroke="white" stroke-width="8" stroke-linecap="round"/>
<line x1="22.7522" y1="31.9365" x2="53.9201" y2="65.1821" stroke="white" stroke-width="8" stroke-linecap="round"/>
<line x1="193.736" y1="237.117" x2="224.904" y2="270.362" stroke="white" stroke-width="8" stroke-linecap="round"/>
<line x1="10.5311" y1="53.3848" x2="46.057" y2="84.7312" stroke="white" stroke-width="8" stroke-linecap="round"/>
<line x1="201.056" y1="214.598" x2="236.582" y2="245.944" stroke="white" stroke-width="8" stroke-linecap="round"/>
<line x1="5.46585" y1="81.5916" x2="44.9523" y2="104.452" stroke="white" stroke-width="8" stroke-linecap="round"/>
<line x1="200.876" y1="196.395" x2="240.362" y2="219.255" stroke="white" stroke-width="8" stroke-linecap="round"/>
<line x1="14.4307" y1="128.695" x2="231.285" y2="168.766" stroke="white" stroke-width="8" stroke-linecap="round"/>
<line x1="5.13619" y1="107.547" x2="44.0393" y2="121.88" stroke="white" stroke-width="8" stroke-linecap="round"/>
<line x1="200.546" y1="178.384" x2="239.449" y2="192.716" stroke="white" stroke-width="8" stroke-linecap="round"/>
<line x1="149.211" y1="7.08544" x2="141.43" y2="50.506" stroke="white" stroke-width="8" stroke-linecap="round"/>
<line x1="107.687" y1="251.348" x2="99.9051" y2="294.768" stroke="white" stroke-width="8" stroke-linecap="round"/>
<line x1="175.956" y1="7.50221" x2="161.388" y2="51.2078" stroke="white" stroke-width="8" stroke-linecap="round"/>
<line x1="88.0216" y1="251.765" x2="73.4531" y2="295.47" stroke="white" stroke-width="8" stroke-linecap="round"/>
<line x1="205.323" y1="5.46101" x2="178.887" y2="51.4728" stroke="white" stroke-width="8" stroke-linecap="round"/>
<line x1="66.0938" y1="249.723" x2="39.6577" y2="295.735" stroke="white" stroke-width="8" stroke-linecap="round"/>
</svg>
