<svg width="881" height="300" viewBox="0 0 881 300" fill="none" xmlns="http://www.w3.org/2000/svg">
<line x1="240.307" y1="8.02245" x2="208.318" y2="52.8077" stroke="white" stroke-width="8" stroke-linecap="round"/>
<line x1="37.5693" y1="249.842" x2="5.57989" y2="294.627" stroke="white" stroke-width="8" stroke-linecap="round"/>
<line x1="123.688" y1="6.44257" x2="123.688" y2="49.7376" stroke="white" stroke-width="8" stroke-linecap="round"/>
<line x1="123.688" y1="250.705" x2="123.688" y2="294" stroke="white" stroke-width="8" stroke-linecap="round"/>
<line x1="99.8114" y1="8.24764" x2="105.953" y2="49.1886" stroke="white" stroke-width="8" stroke-linecap="round"/>
<line x1="141.336" y1="252.51" x2="147.477" y2="293.451" stroke="white" stroke-width="8" stroke-linecap="round"/>
<line x1="71.1896" y1="9.46213" x2="87.6262" y2="48.4989" stroke="white" stroke-width="8" stroke-linecap="round"/>
<line x1="161.567" y1="253.724" x2="178.003" y2="292.761" stroke="white" stroke-width="8" stroke-linecap="round"/>
<line x1="46.9638" y1="18.6524" x2="67.5049" y2="55.6263" stroke="white" stroke-width="8" stroke-linecap="round"/>
<line x1="181.308" y1="245.816" x2="201.849" y2="282.79" stroke="white" stroke-width="8" stroke-linecap="round"/>
<line x1="22.7522" y1="31.9365" x2="53.9201" y2="65.1821" stroke="white" stroke-width="8" stroke-linecap="round"/>
<line x1="193.736" y1="237.117" x2="224.904" y2="270.362" stroke="white" stroke-width="8" stroke-linecap="round"/>
<line x1="10.5311" y1="53.3848" x2="46.057" y2="84.7312" stroke="white" stroke-width="8" stroke-linecap="round"/>
<line x1="201.056" y1="214.598" x2="236.582" y2="245.944" stroke="white" stroke-width="8" stroke-linecap="round"/>
<line x1="5.46585" y1="81.5916" x2="44.9523" y2="104.452" stroke="white" stroke-width="8" stroke-linecap="round"/>
<line x1="200.876" y1="196.395" x2="240.362" y2="219.255" stroke="white" stroke-width="8" stroke-linecap="round"/>
<line x1="14.4307" y1="128.695" x2="231.285" y2="168.766" stroke="white" stroke-width="8" stroke-linecap="round"/>
<line x1="5.13619" y1="107.547" x2="44.0393" y2="121.88" stroke="white" stroke-width="8" stroke-linecap="round"/>
<line x1="200.546" y1="178.384" x2="239.449" y2="192.716" stroke="white" stroke-width="8" stroke-linecap="round"/>
<line x1="149.211" y1="7.08544" x2="141.43" y2="50.506" stroke="white" stroke-width="8" stroke-linecap="round"/>
<line x1="107.687" y1="251.348" x2="99.9051" y2="294.768" stroke="white" stroke-width="8" stroke-linecap="round"/>
<line x1="175.956" y1="7.50221" x2="161.388" y2="51.2078" stroke="white" stroke-width="8" stroke-linecap="round"/>
<line x1="88.0216" y1="251.765" x2="73.4531" y2="295.47" stroke="white" stroke-width="8" stroke-linecap="round"/>
<line x1="205.323" y1="5.46101" x2="178.887" y2="51.4728" stroke="white" stroke-width="8" stroke-linecap="round"/>
<line x1="66.0938" y1="249.723" x2="39.6577" y2="295.735" stroke="white" stroke-width="8" stroke-linecap="round"/>
<path d="M327.04 150V50.48H298.88V38H368.16V50.48H339.84V150H327.04ZM429.08 150L425.08 131.6H400.44L403.16 119.12H421.88L403.96 38.16H416.76L441.88 150H429.08ZM375.96 150L397.4 55.28H399.96L404.76 77.52L388.6 150H375.96ZM480.08 150L447.6 38H460.56L489.04 135.6L484.56 150H480.08ZM533.04 150L502.48 38H515.44L542.16 136.24L537.52 150H533.04ZM491.28 118.96L485.68 99.6L502.48 38H515.44L492.88 118.96H491.28ZM545.68 118.96L539.92 99.76L558.16 38H571.12L547.28 118.96H545.68ZM619.919 150.8V138C621.839 138 623.919 137.573 626.159 136.72C628.399 135.76 630.479 134.427 632.399 132.72C634.425 131.013 636.079 128.933 637.359 126.48C638.639 123.92 639.279 121.04 639.279 117.84V70C639.279 67.76 638.799 65.52 637.839 63.28C636.985 60.9333 635.705 58.7467 633.999 56.72C632.399 54.6933 630.425 53.0933 628.079 51.92C625.732 50.64 623.012 50 619.919 50V37.2C624.932 37.2 629.412 38.16 633.359 40.08C637.305 42 640.665 44.5067 643.439 47.6C646.212 50.6933 648.345 54 649.839 57.52C651.332 60.9333 652.079 64.24 652.079 67.44V118.16C652.079 123.493 651.065 128.187 649.039 132.24C647.012 136.293 644.399 139.707 641.199 142.48C637.999 145.253 634.532 147.333 630.799 148.72C627.065 150.107 623.439 150.8 619.919 150.8ZM611.119 150.8C607.919 150.8 604.452 150.107 600.719 148.72C597.092 147.333 593.625 145.253 590.319 142.48C587.012 139.707 584.292 136.293 582.159 132.24C580.132 128.187 579.119 123.493 579.119 118.16V67.44C579.119 64.24 579.865 60.88 581.359 57.36C582.852 53.84 584.985 50.5867 587.759 47.6C590.532 44.5067 593.892 42 597.839 40.08C601.892 38.16 606.372 37.2 611.279 37.2V50C608.292 50 605.572 50.64 603.119 51.92C600.772 53.0933 598.745 54.7467 597.039 56.88C595.439 58.9067 594.159 61.0933 593.199 63.44C592.345 65.68 591.919 67.8667 591.919 70V117.84C591.919 121.04 592.559 123.867 593.839 126.32C595.225 128.773 596.879 130.907 598.799 132.72C600.825 134.427 602.905 135.76 605.039 136.72C607.279 137.573 609.305 138 611.119 138V150.8ZM692.58 150L660.1 38H673.06L701.54 135.6L697.06 150H692.58ZM745.54 150L714.98 38H727.94L754.66 136.24L750.02 150H745.54ZM703.78 118.96L698.18 99.6L714.98 38H727.94L705.38 118.96H703.78ZM758.18 118.96L752.42 99.76L770.66 38H783.62L759.78 118.96H758.18ZM814.979 150V109.68L788.899 38H802.179L828.099 109.52V150H814.979ZM832.259 98.96L826.179 79.6L843.939 38H857.219L833.219 98.96H832.259Z" fill="white"/>
<path d="M316.96 260.24V255.76C317.92 255.707 319.04 255.413 320.32 254.88C321.653 254.293 322.96 253.467 324.24 252.4C325.52 251.333 326.587 250.053 327.44 248.56C328.293 247.067 328.72 245.387 328.72 243.52C328.72 241.44 328.16 239.76 327.04 238.48C325.973 237.2 324.587 236.187 322.88 235.44C321.227 234.693 319.467 234.133 317.6 233.76C315.787 233.333 314.053 232.987 312.4 232.72C310.8 232.4 309.573 232.08 308.72 231.76C306.853 231.067 305.173 230.213 303.68 229.2C302.187 228.187 301.013 226.853 300.16 225.2C299.307 223.547 298.88 221.467 298.88 218.96C298.88 216.24 299.413 213.947 300.48 212.08C301.547 210.16 302.853 208.613 304.4 207.44C306 206.213 307.6 205.333 309.2 204.8C310.8 204.267 312.133 204 313.2 204V208.56C312.613 208.56 311.787 208.773 310.72 209.2C309.653 209.573 308.56 210.187 307.44 211.04C306.373 211.893 305.467 213.013 304.72 214.4C303.973 215.733 303.6 217.36 303.6 219.28C303.6 221.04 304.053 222.507 304.96 223.68C305.92 224.8 307.147 225.707 308.64 226.4C310.133 227.04 311.76 227.6 313.52 228.08C315.28 228.507 317.013 228.88 318.72 229.2C320.48 229.52 322 229.893 323.28 230.32C325.093 230.907 326.773 231.707 328.32 232.72C329.867 233.733 331.12 235.12 332.08 236.88C333.04 238.587 333.52 240.853 333.52 243.68C333.52 246.507 332.773 249.173 331.28 251.68C329.787 254.187 327.787 256.24 325.28 257.84C322.773 259.44 320 260.24 316.96 260.24ZM313.2 260.24C310.907 260.24 308.853 259.787 307.04 258.88C305.227 257.973 303.653 256.827 302.32 255.44C301.04 254.053 300.027 252.64 299.28 251.2C298.587 249.76 298.24 248.48 298.24 247.36L302.64 245.84C303.067 248.027 303.867 249.84 305.04 251.28C306.213 252.72 307.547 253.787 309.04 254.48C310.533 255.173 311.92 255.6 313.2 255.76V260.24ZM326.8 217.2C326.32 215.173 325.493 213.547 324.32 212.32C323.2 211.093 321.973 210.187 320.64 209.6C319.307 208.96 318.08 208.613 316.96 208.56V204C319.147 204 321.093 204.453 322.8 205.36C324.56 206.213 326.027 207.28 327.2 208.56C328.427 209.84 329.387 211.147 330.08 212.48C330.773 213.813 331.173 214.907 331.28 215.76L326.8 217.2ZM352.166 260V208.64H337.286V204H371.926V208.64H356.966V260H352.166ZM396.862 260.4V255.6C397.929 255.6 399.075 255.36 400.302 254.88C401.582 254.347 402.782 253.6 403.902 252.64C405.075 251.68 406.035 250.507 406.782 249.12C407.582 247.68 407.982 246.027 407.982 244.16V219.68C407.982 218.453 407.715 217.2 407.182 215.92C406.702 214.64 405.982 213.413 405.022 212.24C404.062 211.067 402.889 210.133 401.502 209.44C400.169 208.693 398.622 208.32 396.862 208.32V203.6C399.422 203.6 401.689 204.107 403.662 205.12C405.635 206.133 407.289 207.413 408.622 208.96C410.009 210.507 411.049 212.133 411.742 213.84C412.435 215.493 412.782 217.013 412.782 218.4V244.24C412.782 247.013 412.222 249.413 411.102 251.44C410.035 253.467 408.675 255.147 407.022 256.48C405.369 257.813 403.635 258.8 401.822 259.44C400.009 260.08 398.355 260.4 396.862 260.4ZM392.462 260.4C391.075 260.4 389.475 260.08 387.662 259.44C385.849 258.8 384.089 257.813 382.382 256.48C380.729 255.147 379.342 253.467 378.222 251.44C377.155 249.413 376.622 247.013 376.622 244.24V218.4C376.622 216.96 376.969 215.413 377.662 213.76C378.355 212.053 379.369 210.427 380.702 208.88C382.089 207.333 383.769 206.08 385.742 205.12C387.715 204.107 389.982 203.6 392.542 203.6V208.32C390.782 208.32 389.209 208.693 387.822 209.44C386.489 210.187 385.342 211.147 384.382 212.32C383.422 213.493 382.675 214.747 382.142 216.08C381.662 217.36 381.422 218.56 381.422 219.68V244.16C381.422 245.973 381.795 247.6 382.542 249.04C383.342 250.427 384.302 251.627 385.422 252.64C386.595 253.6 387.795 254.347 389.022 254.88C390.302 255.36 391.449 255.6 392.462 255.6V260.4ZM426.32 260V238.32L422.4 241.36L419.68 237.84L426.32 232.72V204H431.12V229.04L436.72 224.64L439.52 228.16L431.12 234.64V255.36H456.4V260H426.32ZM467.859 260V239.84L453.939 204H458.979L472.739 239.76V260H467.859ZM474.659 234.8L472.419 228.08L483.219 204H488.099L475.059 234.8H474.659ZM552.479 259.04L523.279 228C521.626 226.133 520.346 224.48 519.439 223.04C518.586 221.547 518.159 219.707 518.159 217.52C518.159 215.067 518.693 212.853 519.759 210.88C520.879 208.907 522.373 207.28 524.239 206C526.159 204.667 528.319 203.84 530.719 203.52V208.16C529.493 208.267 528.266 208.72 527.039 209.52C525.813 210.267 524.799 211.307 523.999 212.64C523.199 213.973 522.799 215.573 522.799 217.44C522.799 218.72 523.039 219.84 523.519 220.8C524.053 221.76 524.666 222.587 525.359 223.28C526.053 223.973 526.613 224.587 527.039 225.12L545.679 244.88C546.533 244.027 547.333 242.907 548.079 241.52C548.879 240.133 549.519 238.64 549.999 237.04C550.533 235.44 550.799 233.893 550.799 232.4H555.679C555.626 234.587 555.253 236.72 554.559 238.8C553.919 240.827 553.119 242.693 552.159 244.4C551.199 246.053 550.186 247.467 549.119 248.64L557.519 257.68L552.479 259.04ZM529.999 260.08C526.906 260.08 524.026 259.387 521.359 258C518.693 256.56 516.533 254.56 514.879 252C513.226 249.387 512.399 246.373 512.399 242.96C512.399 240.453 512.959 238.08 514.079 235.84C515.199 233.6 516.799 231.6 518.879 229.84L522.159 233.36C521.573 233.84 520.879 234.507 520.079 235.36C519.333 236.213 518.666 237.28 518.079 238.56C517.493 239.84 517.199 241.333 517.199 243.04C517.199 245.6 517.813 247.787 519.039 249.6C520.319 251.413 521.946 252.827 523.919 253.84C525.946 254.8 528.026 255.28 530.159 255.28C531.813 255.28 533.466 254.96 535.119 254.32C536.773 253.68 538.186 252.693 539.359 251.36L542.639 254.96C540.773 256.667 538.746 257.947 536.559 258.8C534.426 259.653 532.239 260.08 529.999 260.08ZM542.959 216.48C542.799 215.307 542.399 214.133 541.759 212.96C541.119 211.787 540.239 210.747 539.119 209.84C537.999 208.933 536.666 208.373 535.119 208.16V203.52C538.266 203.893 540.959 205.173 543.199 207.36C545.439 209.547 546.853 212.187 547.439 215.28L542.959 216.48ZM611.914 260L591.194 232.72L611.594 204H616.954L596.634 232.72L617.274 260H611.914ZM582.794 260V204H587.674V260H582.794ZM652.573 260L651.373 245.76C651.159 243.467 650.759 241.52 650.173 239.92C649.639 238.267 648.733 237.04 647.453 236.24C646.173 235.387 644.306 234.987 641.853 235.04H630.733V230.56H641.213C644.519 230.56 646.919 229.68 648.413 227.92C649.906 226.16 650.653 223.413 650.653 219.68C650.653 215.84 649.773 212.987 648.013 211.12C646.306 209.2 643.479 208.24 639.533 208.24H630.733V204H641.053C643.666 204.107 646.039 204.64 648.173 205.6C650.359 206.56 652.093 208.16 653.373 210.4C654.706 212.587 655.373 215.653 655.373 219.6C655.373 223.227 654.866 226.08 653.853 228.16C652.839 230.24 651.506 231.787 649.853 232.8C651.399 233.547 652.733 234.72 653.853 236.32C654.973 237.867 655.639 239.973 655.853 242.64L657.213 260H652.573ZM622.173 260V204H626.973V260H622.173ZM662.478 260V255.52L686.478 208.64H662.478V204H691.758V208.4L667.758 255.28H691.838L691.758 260H662.478ZM698.106 260V204H727.226V208.64H702.986V229.76H719.706V234.48H702.986V255.28H727.226V260H698.106ZM751.413 260.24V255.76C752.373 255.707 753.493 255.413 754.773 254.88C756.106 254.293 757.413 253.467 758.693 252.4C759.973 251.333 761.04 250.053 761.893 248.56C762.746 247.067 763.173 245.387 763.173 243.52C763.173 241.44 762.613 239.76 761.493 238.48C760.426 237.2 759.04 236.187 757.333 235.44C755.68 234.693 753.92 234.133 752.053 233.76C750.24 233.333 748.506 232.987 746.853 232.72C745.253 232.4 744.026 232.08 743.173 231.76C741.306 231.067 739.626 230.213 738.133 229.2C736.64 228.187 735.466 226.853 734.613 225.2C733.76 223.547 733.333 221.467 733.333 218.96C733.333 216.24 733.866 213.947 734.933 212.08C736 210.16 737.306 208.613 738.853 207.44C740.453 206.213 742.053 205.333 743.653 204.8C745.253 204.267 746.586 204 747.653 204V208.56C747.066 208.56 746.24 208.773 745.173 209.2C744.106 209.573 743.013 210.187 741.893 211.04C740.826 211.893 739.92 213.013 739.173 214.4C738.426 215.733 738.053 217.36 738.053 219.28C738.053 221.04 738.506 222.507 739.413 223.68C740.373 224.8 741.6 225.707 743.093 226.4C744.586 227.04 746.213 227.6 747.973 228.08C749.733 228.507 751.466 228.88 753.173 229.2C754.933 229.52 756.453 229.893 757.733 230.32C759.546 230.907 761.226 231.707 762.773 232.72C764.32 233.733 765.573 235.12 766.533 236.88C767.493 238.587 767.973 240.853 767.973 243.68C767.973 246.507 767.226 249.173 765.733 251.68C764.24 254.187 762.24 256.24 759.733 257.84C757.226 259.44 754.453 260.24 751.413 260.24ZM747.653 260.24C745.36 260.24 743.306 259.787 741.493 258.88C739.68 257.973 738.106 256.827 736.773 255.44C735.493 254.053 734.48 252.64 733.733 251.2C733.04 249.76 732.693 248.48 732.693 247.36L737.093 245.84C737.52 248.027 738.32 249.84 739.493 251.28C740.666 252.72 742 253.787 743.493 254.48C744.986 255.173 746.373 255.6 747.653 255.76V260.24ZM761.253 217.2C760.773 215.173 759.946 213.547 758.773 212.32C757.653 211.093 756.426 210.187 755.093 209.6C753.76 208.96 752.533 208.613 751.413 208.56V204C753.6 204 755.546 204.453 757.253 205.36C759.013 206.213 760.48 207.28 761.653 208.56C762.88 209.84 763.84 211.147 764.533 212.48C765.226 213.813 765.626 214.907 765.733 215.76L761.253 217.2ZM780.539 260V238.32L776.619 241.36L773.899 237.84L780.539 232.72V204H785.339V229.04L790.939 224.64L793.739 228.16L785.339 234.64V255.36H810.619V260H780.539ZM834.958 260L832.878 250H819.198L820.238 245.36H831.678L822.638 204.08H827.358L839.758 260H834.958ZM808.478 260L819.358 212.32H820.638L822.238 219.68L813.278 260H808.478Z" fill="white"/>
</svg>
