<svg width="851" height="299" viewBox="0 0 851 299" fill="none" xmlns="http://www.w3.org/2000/svg">
<line x1="239.726" y1="4.53502" x2="204.83" y2="53.3889" stroke="white" stroke-width="3" stroke-linecap="round"/>
<line x1="36.9881" y1="246.355" x2="2.09246" y2="295.209" stroke="white" stroke-width="3" stroke-linecap="round"/>
<line x1="121.188" y1="3.94257" x2="121.188" y2="52.2376" stroke="white" stroke-width="3" stroke-linecap="round"/>
<line x1="121.188" y1="248.205" x2="121.188" y2="296.5" stroke="white" stroke-width="3" stroke-linecap="round"/>
<line x1="96.9682" y1="6.14615" x2="103.851" y2="52.0318" stroke="white" stroke-width="3" stroke-linecap="round"/>
<line x1="138.493" y1="250.408" x2="145.376" y2="296.294" stroke="white" stroke-width="3" stroke-linecap="round"/>
<line x1="67.9154" y1="8.12819" x2="86.2922" y2="51.7731" stroke="white" stroke-width="3" stroke-linecap="round"/>
<line x1="158.292" y1="252.391" x2="176.669" y2="296.035" stroke="white" stroke-width="3" stroke-linecap="round"/>
<line x1="43.5643" y1="17.6811" x2="66.5336" y2="59.0258" stroke="white" stroke-width="3" stroke-linecap="round"/>
<line x1="177.909" y1="244.845" x2="200.878" y2="286.19" stroke="white" stroke-width="3" stroke-linecap="round"/>
<line x1="19.2185" y1="31.8225" x2="53.8061" y2="68.7158" stroke="white" stroke-width="3" stroke-linecap="round"/>
<line x1="190.202" y1="237.003" x2="224.79" y2="273.896" stroke="white" stroke-width="3" stroke-linecap="round"/>
<line x1="7.00244" y1="53.6053" x2="46.2775" y2="88.2598" stroke="white" stroke-width="3" stroke-linecap="round"/>
<line x1="197.527" y1="214.818" x2="236.802" y2="249.473" stroke="white" stroke-width="3" stroke-linecap="round"/>
<line x1="2.04969" y1="82.5025" x2="45.8633" y2="107.868" stroke="white" stroke-width="3" stroke-linecap="round"/>
<line x1="197.46" y1="197.306" x2="241.273" y2="222.672" stroke="white" stroke-width="3" stroke-linecap="round"/>
<line x1="11.5181" y1="130.699" x2="233.289" y2="171.679" stroke="white" stroke-width="3" stroke-linecap="round"/>
<line x1="1.92607" y1="109.029" x2="45.5209" y2="125.09" stroke="white" stroke-width="3" stroke-linecap="round"/>
<line x1="197.336" y1="179.865" x2="240.931" y2="195.926" stroke="white" stroke-width="3" stroke-linecap="round"/>
<line x1="147.191" y1="4.18364" x2="138.528" y2="52.5258" stroke="white" stroke-width="3" stroke-linecap="round"/>
<line x1="105.667" y1="248.446" x2="97.0033" y2="296.788" stroke="white" stroke-width="3" stroke-linecap="round"/>
<line x1="174.375" y1="4.33993" x2="158.225" y2="52.789" stroke="white" stroke-width="3" stroke-linecap="round"/>
<line x1="86.4405" y1="248.602" x2="70.2908" y2="297.051" stroke="white" stroke-width="3" stroke-linecap="round"/>
<line x1="204.401" y1="2.04788" x2="175.474" y2="52.3951" stroke="white" stroke-width="3" stroke-linecap="round"/>
<line x1="65.1716" y1="246.31" x2="36.2446" y2="296.657" stroke="white" stroke-width="3" stroke-linecap="round"/>
<path d="M289.588 146.671V72.031H268.468V62.671H320.428V72.031H299.188V146.671H289.588ZM366.118 146.671L363.118 132.871H344.638L346.678 123.511H360.718L347.278 62.791H356.878L375.718 146.671H366.118ZM326.278 146.671L342.358 75.631H344.278L347.878 92.311L335.758 146.671H326.278ZM404.368 146.671L380.008 62.671H389.728L411.088 135.871L407.728 146.671H404.368ZM444.088 146.671L421.168 62.671H430.888L450.928 136.351L447.448 146.671H444.088ZM412.768 123.391L408.568 108.871L421.168 62.671H430.888L413.968 123.391H412.768ZM453.568 123.391L449.248 108.991L462.928 62.671H472.648L454.768 123.391H453.568ZM509.247 147.271V137.671C510.687 137.671 512.247 137.351 513.927 136.711C515.607 135.991 517.167 134.991 518.607 133.711C520.127 132.431 521.367 130.871 522.327 129.031C523.287 127.111 523.767 124.951 523.767 122.551V86.671C523.767 84.991 523.407 83.311 522.687 81.631C522.047 79.871 521.087 78.231 519.807 76.711C518.607 75.191 517.127 73.991 515.367 73.111C513.607 72.151 511.567 71.671 509.247 71.671V62.071C513.007 62.071 516.367 62.791 519.327 64.231C522.287 65.671 524.807 67.551 526.887 69.871C528.967 72.191 530.567 74.671 531.687 77.311C532.807 79.871 533.367 82.351 533.367 84.751V122.791C533.367 126.791 532.607 130.311 531.087 133.351C529.567 136.391 527.607 138.951 525.207 141.031C522.807 143.111 520.207 144.671 517.407 145.711C514.607 146.751 511.887 147.271 509.247 147.271ZM502.647 147.271C500.247 147.271 497.647 146.751 494.847 145.711C492.127 144.671 489.527 143.111 487.047 141.031C484.567 138.951 482.527 136.391 480.927 133.351C479.407 130.311 478.647 126.791 478.647 122.791V84.751C478.647 82.351 479.207 79.831 480.327 77.191C481.447 74.551 483.047 72.111 485.127 69.871C487.207 67.551 489.727 65.671 492.687 64.231C495.727 62.791 499.087 62.071 502.767 62.071V71.671C500.527 71.671 498.487 72.151 496.647 73.111C494.887 73.991 493.367 75.231 492.087 76.831C490.887 78.351 489.927 79.991 489.207 81.751C488.567 83.431 488.247 85.071 488.247 86.671V122.551C488.247 124.951 488.727 127.071 489.687 128.911C490.727 130.751 491.967 132.351 493.407 133.711C494.927 134.991 496.487 135.991 498.087 136.711C499.767 137.351 501.287 137.671 502.647 137.671V147.271ZM563.743 146.671L539.383 62.671H549.103L570.463 135.871L567.103 146.671H563.743ZM603.463 146.671L580.543 62.671H590.263L610.303 136.351L606.823 146.671H603.463ZM572.143 123.391L567.943 108.871L580.543 62.671H590.263L573.343 123.391H572.143ZM612.943 123.391L608.623 108.991L622.303 62.671H632.023L614.143 123.391H612.943ZM655.542 146.671V116.431L635.982 62.671H645.942L665.382 116.311V146.671H655.542ZM668.502 108.391L663.942 93.871L677.262 62.671H687.222L669.222 108.391H668.502Z" fill="white"/>
<path d="M311.374 241.55V238.19C312.094 238.15 312.934 237.93 313.894 237.53C314.894 237.09 315.874 236.47 316.834 235.67C317.794 234.87 318.594 233.91 319.234 232.79C319.874 231.67 320.194 230.41 320.194 229.01C320.194 227.45 319.774 226.19 318.934 225.23C318.134 224.27 317.094 223.51 315.814 222.95C314.574 222.39 313.254 221.97 311.854 221.69C310.494 221.37 309.194 221.11 307.954 220.91C306.754 220.67 305.834 220.43 305.194 220.19C303.794 219.67 302.534 219.03 301.414 218.27C300.294 217.51 299.414 216.51 298.774 215.27C298.134 214.03 297.814 212.47 297.814 210.59C297.814 208.55 298.214 206.83 299.014 205.43C299.814 203.99 300.794 202.83 301.954 201.95C303.154 201.03 304.354 200.37 305.554 199.97C306.754 199.57 307.754 199.37 308.554 199.37V202.79C308.114 202.79 307.494 202.95 306.694 203.27C305.894 203.55 305.074 204.01 304.234 204.65C303.434 205.29 302.754 206.13 302.194 207.17C301.634 208.17 301.354 209.39 301.354 210.83C301.354 212.15 301.694 213.25 302.374 214.13C303.094 214.97 304.014 215.65 305.134 216.17C306.254 216.65 307.474 217.07 308.794 217.43C310.114 217.75 311.414 218.03 312.694 218.27C314.014 218.51 315.154 218.79 316.114 219.11C317.474 219.55 318.734 220.15 319.894 220.91C321.054 221.67 321.994 222.71 322.714 224.03C323.434 225.31 323.794 227.01 323.794 229.13C323.794 231.25 323.234 233.25 322.114 235.13C320.994 237.01 319.494 238.55 317.614 239.75C315.734 240.95 313.654 241.55 311.374 241.55ZM308.554 241.55C306.834 241.55 305.294 241.21 303.934 240.53C302.574 239.85 301.394 238.99 300.394 237.95C299.434 236.91 298.674 235.85 298.114 234.77C297.594 233.69 297.334 232.73 297.334 231.89L300.634 230.75C300.954 232.39 301.554 233.75 302.434 234.83C303.314 235.91 304.314 236.71 305.434 237.23C306.554 237.75 307.594 238.07 308.554 238.19V241.55ZM318.754 209.27C318.394 207.75 317.774 206.53 316.894 205.61C316.054 204.69 315.134 204.01 314.134 203.57C313.134 203.09 312.214 202.83 311.374 202.79V199.37C313.014 199.37 314.474 199.71 315.754 200.39C317.074 201.03 318.174 201.83 319.054 202.79C319.974 203.75 320.694 204.73 321.214 205.73C321.734 206.73 322.034 207.55 322.114 208.19L318.754 209.27ZM337.778 241.37V202.85H326.618V199.37H352.598V202.85H341.378V241.37H337.778ZM371.3 241.67V238.07C372.1 238.07 372.96 237.89 373.88 237.53C374.84 237.13 375.74 236.57 376.58 235.85C377.46 235.13 378.18 234.25 378.74 233.21C379.34 232.13 379.64 230.89 379.64 229.49V211.13C379.64 210.21 379.44 209.27 379.04 208.31C378.68 207.35 378.14 206.43 377.42 205.55C376.7 204.67 375.82 203.97 374.78 203.45C373.78 202.89 372.62 202.61 371.3 202.61V199.07C373.22 199.07 374.92 199.45 376.4 200.21C377.88 200.97 379.12 201.93 380.12 203.09C381.16 204.25 381.94 205.47 382.46 206.75C382.98 207.99 383.24 209.13 383.24 210.17V229.55C383.24 231.63 382.82 233.43 381.98 234.95C381.18 236.47 380.16 237.73 378.92 238.73C377.68 239.73 376.38 240.47 375.02 240.95C373.66 241.43 372.42 241.67 371.3 241.67ZM368 241.67C366.96 241.67 365.76 241.43 364.4 240.95C363.04 240.47 361.72 239.73 360.44 238.73C359.2 237.73 358.16 236.47 357.32 234.95C356.52 233.43 356.12 231.63 356.12 229.55V210.17C356.12 209.09 356.38 207.93 356.9 206.69C357.42 205.41 358.18 204.19 359.18 203.03C360.22 201.87 361.48 200.93 362.96 200.21C364.44 199.45 366.14 199.07 368.06 199.07V202.61C366.74 202.61 365.56 202.89 364.52 203.45C363.52 204.01 362.66 204.73 361.94 205.61C361.22 206.49 360.66 207.43 360.26 208.43C359.9 209.39 359.72 210.29 359.72 211.13V229.49C359.72 230.85 360 232.07 360.56 233.15C361.16 234.19 361.88 235.09 362.72 235.85C363.6 236.57 364.5 237.13 365.42 237.53C366.38 237.89 367.24 238.07 368 238.07V241.67ZM393.394 241.37V225.11L390.454 227.39L388.414 224.75L393.394 220.91V199.37H396.994V218.15L401.194 214.85L403.294 217.49L396.994 222.35V237.89H415.954V241.37H393.394ZM424.548 241.37V226.25L414.108 199.37H417.888L428.208 226.19V241.37H424.548ZM429.648 222.47L427.968 217.43L436.068 199.37H439.728L429.948 222.47H429.648ZM488.013 240.65L466.113 217.37C464.873 215.97 463.913 214.73 463.233 213.65C462.593 212.53 462.273 211.15 462.273 209.51C462.273 207.67 462.673 206.01 463.473 204.53C464.313 203.05 465.433 201.83 466.833 200.87C468.273 199.87 469.893 199.25 471.693 199.01V202.49C470.773 202.57 469.853 202.91 468.933 203.51C468.013 204.07 467.253 204.85 466.653 205.85C466.053 206.85 465.753 208.05 465.753 209.45C465.753 210.41 465.933 211.25 466.293 211.97C466.693 212.69 467.153 213.31 467.673 213.83C468.193 214.35 468.613 214.81 468.933 215.21L482.913 230.03C483.553 229.39 484.153 228.55 484.713 227.51C485.313 226.47 485.793 225.35 486.153 224.15C486.553 222.95 486.753 221.79 486.753 220.67H490.413C490.373 222.31 490.093 223.91 489.573 225.47C489.093 226.99 488.493 228.39 487.773 229.67C487.053 230.91 486.293 231.97 485.493 232.85L491.793 239.63L488.013 240.65ZM471.153 241.43C468.833 241.43 466.673 240.91 464.673 239.87C462.673 238.79 461.053 237.29 459.813 235.37C458.573 233.41 457.953 231.15 457.953 228.59C457.953 226.71 458.373 224.93 459.213 223.25C460.053 221.57 461.253 220.07 462.813 218.75L465.273 221.39C464.833 221.75 464.313 222.25 463.713 222.89C463.153 223.53 462.653 224.33 462.213 225.29C461.773 226.25 461.553 227.37 461.553 228.65C461.553 230.57 462.013 232.21 462.933 233.57C463.893 234.93 465.113 235.99 466.593 236.75C468.113 237.47 469.673 237.83 471.273 237.83C472.513 237.83 473.753 237.59 474.993 237.11C476.233 236.63 477.293 235.89 478.173 234.89L480.633 237.59C479.233 238.87 477.713 239.83 476.073 240.47C474.473 241.11 472.833 241.43 471.153 241.43ZM480.873 208.73C480.753 207.85 480.453 206.97 479.973 206.09C479.493 205.21 478.833 204.43 477.993 203.75C477.153 203.07 476.153 202.65 474.993 202.49V199.01C477.353 199.29 479.373 200.25 481.053 201.89C482.733 203.53 483.793 205.51 484.233 207.83L480.873 208.73ZM532.589 241.37L517.049 220.91L532.349 199.37H536.369L521.129 220.91L536.609 241.37H532.589ZM510.749 241.37V199.37H514.409V241.37H510.749ZM563.083 241.37L562.183 230.69C562.023 228.97 561.723 227.51 561.283 226.31C560.883 225.07 560.203 224.15 559.243 223.55C558.283 222.91 556.883 222.61 555.043 222.65H546.703V219.29H554.563C557.043 219.29 558.843 218.63 559.963 217.31C561.083 215.99 561.643 213.93 561.643 211.13C561.643 208.25 560.983 206.11 559.663 204.71C558.383 203.27 556.263 202.55 553.303 202.55H546.703V199.37H554.443C556.403 199.45 558.183 199.85 559.783 200.57C561.423 201.29 562.723 202.49 563.683 204.17C564.683 205.81 565.183 208.11 565.183 211.07C565.183 213.79 564.803 215.93 564.043 217.49C563.283 219.05 562.283 220.21 561.043 220.97C562.203 221.53 563.203 222.41 564.043 223.61C564.883 224.77 565.383 226.35 565.543 228.35L566.563 241.37H563.083ZM540.283 241.37V199.37H543.883V241.37H540.283ZM570.512 241.37V238.01L588.512 202.85H570.512V199.37H592.472V202.67L574.472 237.83H592.532L592.472 241.37H570.512ZM597.233 241.37V199.37H619.073V202.85H600.893V218.69H613.433V222.23H600.893V237.83H619.073V241.37H597.233ZM637.213 241.55V238.19C637.933 238.15 638.773 237.93 639.733 237.53C640.733 237.09 641.713 236.47 642.673 235.67C643.633 234.87 644.433 233.91 645.073 232.79C645.713 231.67 646.033 230.41 646.033 229.01C646.033 227.45 645.613 226.19 644.773 225.23C643.973 224.27 642.933 223.51 641.653 222.95C640.413 222.39 639.093 221.97 637.693 221.69C636.333 221.37 635.033 221.11 633.793 220.91C632.593 220.67 631.673 220.43 631.033 220.19C629.633 219.67 628.373 219.03 627.253 218.27C626.133 217.51 625.253 216.51 624.613 215.27C623.973 214.03 623.653 212.47 623.653 210.59C623.653 208.55 624.053 206.83 624.853 205.43C625.653 203.99 626.633 202.83 627.793 201.95C628.993 201.03 630.193 200.37 631.393 199.97C632.593 199.57 633.593 199.37 634.393 199.37V202.79C633.953 202.79 633.333 202.95 632.533 203.27C631.733 203.55 630.913 204.01 630.073 204.65C629.273 205.29 628.593 206.13 628.033 207.17C627.473 208.17 627.193 209.39 627.193 210.83C627.193 212.15 627.533 213.25 628.213 214.13C628.933 214.97 629.853 215.65 630.973 216.17C632.093 216.65 633.313 217.07 634.633 217.43C635.953 217.75 637.253 218.03 638.533 218.27C639.853 218.51 640.993 218.79 641.953 219.11C643.313 219.55 644.573 220.15 645.733 220.91C646.893 221.67 647.833 222.71 648.553 224.03C649.273 225.31 649.633 227.01 649.633 229.13C649.633 231.25 649.073 233.25 647.953 235.13C646.833 237.01 645.333 238.55 643.453 239.75C641.573 240.95 639.493 241.55 637.213 241.55ZM634.393 241.55C632.673 241.55 631.133 241.21 629.773 240.53C628.413 239.85 627.233 238.99 626.233 237.95C625.273 236.91 624.513 235.85 623.953 234.77C623.433 233.69 623.173 232.73 623.173 231.89L626.473 230.75C626.793 232.39 627.393 233.75 628.273 234.83C629.153 235.91 630.153 236.71 631.273 237.23C632.393 237.75 633.433 238.07 634.393 238.19V241.55ZM644.593 209.27C644.233 207.75 643.613 206.53 642.733 205.61C641.893 204.69 640.973 204.01 639.973 203.57C638.973 203.09 638.053 202.83 637.213 202.79V199.37C638.853 199.37 640.313 199.71 641.593 200.39C642.913 201.03 644.013 201.83 644.893 202.79C645.813 203.75 646.533 204.73 647.053 205.73C647.573 206.73 647.873 207.55 647.953 208.19L644.593 209.27ZM659.058 241.37V225.11L656.118 227.39L654.078 224.75L659.058 220.91V199.37H662.658V218.15L666.858 214.85L668.958 217.49L662.658 222.35V237.89H681.618V241.37H659.058ZM699.872 241.37L698.312 233.87H688.052L688.832 230.39H697.412L690.632 199.43H694.172L703.472 241.37H699.872ZM680.012 241.37L688.172 205.61H689.132L690.332 211.13L683.612 241.37H680.012Z" fill="white"/>
</svg>
